<?xml version="1.0" encoding="utf-8"?>
<!-- Generator: Adobe Illustrator 19.0.0, SVG Export Plug-In . SVG Version: 6.00 Build 0)  -->
<svg version="1.1" id="Layer_1" xmlns="http://www.w3.org/2000/svg" xmlns:xlink="http://www.w3.org/1999/xlink" x="0px" y="0px"
	 viewBox="0 0 213.6 100" style="enable-background:new 0 0 213.6 100;" xml:space="preserve">
<style type="text/css">
	.st0{fill:#F7941E;}
	.st1{fill:#92278F;}
	.st2{fill:#EC008C;}
	.st3{fill:#F9ED32;}
	.st4{fill:#00A79D;}
</style>
<g>
	<rect x="34.3" y="20.9" width="10.4" height="8.6"/>
	<rect x="34.3" y="33.3" width="10.4" height="32.4"/>
	<path d="M52.2,20.9H72c5.5,0,9.7,1.6,12.6,4.5c2.4,2.5,3.7,6,3.7,10.2v0.1c0,7.2-3.8,11.8-9.3,13.9l10.5,16H78.5l-9.3-14.3h-7.5
		v14.3h-9.5V20.9 M71.4,42.6c4.6,0,7.3-2.6,7.3-6.3v-0.1c0-4.2-2.8-6.4-7.5-6.4h-9.4v12.9H71.4z"/>
	<rect x="124" y="21.1" width="3.6" height="16.4"/>
	<polyline points="132.9,21.1 136.2,21.1 143.9,31.2 143.9,21.1 147.4,21.1 147.4,37.5 144.4,37.5 136.4,27.1 136.4,37.5 
		132.9,37.5 132.9,21.1 	"/>
	<path d="M151.4,35.2l2.1-2.6c1.5,1.2,3,2,4.9,2c1.5,0,2.4-0.6,2.4-1.5v0c0-0.9-0.6-1.4-3.3-2.1c-3.3-0.8-5.4-1.8-5.4-5v0
		c0-3,2.4-4.9,5.7-4.9c2.4,0,4.4,0.7,6.1,2.1l-1.9,2.7c-1.5-1-2.9-1.6-4.3-1.6c-1.4,0-2.1,0.6-2.1,1.4v0c0,1.1,0.7,1.4,3.5,2.2
		c3.3,0.9,5.2,2.1,5.2,4.9v0c0,3.3-2.5,5.1-6,5.1C155.9,37.8,153.4,36.9,151.4,35.2"/>
	<rect x="168.9" y="21.1" width="3.6" height="16.4"/>
	<path d="M177.8,21.1h6.4c5.2,0,8.7,3.5,8.7,8.2v0c0,4.6-3.6,8.2-8.7,8.2h-6.4V21.1 M181.4,24.4v9.9h2.8c3,0,4.9-2,4.9-4.9v0
		c0-2.9-2-4.9-4.9-4.9H181.4z"/>
	<polyline points="197.3,21.1 209.7,21.1 209.7,24.3 200.9,24.3 200.9,27.7 208.6,27.7 208.6,30.9 200.9,30.9 200.9,34.3 
		209.8,34.3 209.8,37.5 197.3,37.5 197.3,21.1 	"/>
	<path d="M123.8,49.3h7.5c2.1,0,3.7,0.6,4.8,1.7c0.9,0.9,1.4,2.2,1.4,3.8v0c0,2.6-1.4,4.3-3.5,5.1l4,5.9h-4.2l-3.5-5.3h-2.8v5.3
		h-3.6V49.3 M131.1,57.2c1.8,0,2.8-0.9,2.8-2.3v0c0-1.5-1.1-2.3-2.8-2.3h-3.6v4.7H131.1z"/>
	<polyline points="141.9,49.3 154.3,49.3 154.3,52.5 145.5,52.5 145.5,55.8 153.3,55.8 153.3,59 145.5,59 145.5,62.5 154.4,62.5 
		154.4,65.7 141.9,65.7 141.9,49.3 	"/>
	<polyline points="162.6,52.6 157.6,52.6 157.6,49.3 171.2,49.3 171.2,52.6 166.2,52.6 166.2,65.7 162.6,65.7 162.6,52.6 	"/>
	<path d="M178.7,49.1h3.3l7,16.5h-3.8l-1.5-3.7h-6.9l-1.5,3.7h-3.7L178.7,49.1 M182.5,58.8l-2.2-5.3l-2.2,5.3H182.5z"/>
	<rect x="192.9" y="49.3" width="3.6" height="16.4"/>
	<polyline points="201.8,49.3 205.4,49.3 205.4,62.4 213.6,62.4 213.6,65.7 201.8,65.7 201.8,49.3 	"/>
</g>
<polygon class="st0" points="110.4,10.4 110.4,35.4 100,27.9 100,10.4 "/>
<polygon class="st1" points="110.4,35.4 110.4,100 100,86.5 85.7,86.5 63.1,76.1 100,76.1 100,27.9 "/>
<polygon class="st2" points="85.7,86.5 23.9,86.5 23.9,76.1 63.1,76.1 "/>
<polygon class="st3" points="83.2,0 63.5,10.4 23.9,10.4 23.9,31.4 13.4,36.9 13.4,0 "/>
<polygon class="st4" points="100,0 100,10.4 63.5,10.4 83.2,0 "/>
<polygon class="st4" points="23.9,31.4 23.9,76.1 0,76.1 13.4,65.7 13.4,36.9 "/>
</svg>
